<svg xmlns="http://www.w3.org/2000/svg" viewBox="0 0 400 129" fill="none">
  <!-- Logo original -->
  <g transform="translate(0, 0)">
    <path fill-rule="evenodd" clip-rule="evenodd" d="M45 59.4717V68.4611H54L44 82.4611H51.5L53.5 82.9611L54.5 84.9611V85.4611C54.5 85.5059 54.4979 85.3725 54.5 85.4611C54.5209 86.3587 54 86.9611 53.5 88.9611L46.5 89.4611C46.5 91.9611 46.5 96.9611 47.5 96.9611H71C72.3333 96.7944 75.2 96.2611 76 95.4611C77 94.4611 78.5 91.4611 78.5 90.4611L79 86.9717L78.5 82.9611C78 81.4611 76.5 79.9611 75.5 78.9611C75.2028 78.6639 74.7139 78.4399 74.284 78.2429C73.6909 77.9712 73.2101 77.7509 73.5 77.4611C73.6193 77.3418 73.9092 77.0803 74.2816 76.7445C75.4705 75.6722 77.5 73.4717 77.5 73.4611L78 71.4717V69.9717L77.5 66.4611C77.5 65.9611 74.5 59.9611 71.5 59.9611C69.15 59.9611 53.0046 59.6415 45 59.4717Z" fill="#0A2B5B"/>
    <path d="M88.9999 43.9717L79.4999 35.4717C77.5 37.4717 74.5 40.9717 73.9999 41.4717C73.717 41.7545 76.1666 43.6383 76.9999 44.4717C76.8332 44.9717 75.4998 46.0773 75.4999 46.9717C75.5 47.9717 79 49.9717 79.4999 49.9717C80 49.9717 80 49.4717 81.4999 47.9717C82.2192 47.2524 84.0001 49.9717 85 49.4717C85.6324 49.1554 87.4999 45.9717 88.9999 43.9717Z" fill="#0A2B5B"/>
    <path d="M97.5 28.9717C142.5 84.4717 74 137.472 32 98.75" stroke="#0A2B5B" stroke-width="10"/>
    <path d="M120 64.4717C120 94.8558 95.5911 119.472 65.5 119.472C35.4089 119.472 11 94.8558 11 64.4717C11 34.0875 35.4089 9.47168 65.5 9.47168C95.5911 9.47168 120 34.0875 120 64.4717Z" stroke="#0A2B5B" stroke-width="2"/>
    <circle cx="65.5" cy="64.9717" r="62" stroke="#0A2B5B"/>
    <path d="M80.5 33.4717L100 7.47168L110 14.9717L109.5 15.9717L90 41.4717L80.5 33.4717Z" fill="#0A2B5B" stroke="#0A2B5B"/>
    <path d="M35.5 96.9717C34.5 98.4717 32 103.972 32 104.972L36 105.472C43 107.305 57.4 110.972 59 110.972C61 110.972 87 107.972 87 107.472C87 106.972 76 100.972 74.5 99.9717C73 98.9717 62.5 85.9717 62.5 85.4717C62.5 85.0717 58.1667 88.6383 56 90.4717L46.5 80.4717C46.1667 81.1383 45.4 82.5717 45 82.9717C44.5 83.4717 41 87.9717 40.5 88.9717C40 89.9717 36.5 95.4717 35.5 96.9717Z" fill="#0A2B5B"/>
    <path d="M11.3409 61.0512V62.9262H3.70455V61.0512H11.3409Z" fill="#0A2B5B"/>
    <path d="M61.4205 10.8126H59.5455V3.17623H61.4205V10.8126Z" fill="#0A2B5B"/>
    <path d="M52.0853 11.7307L50.2388 12.0563L48.9127 4.53595L50.7592 4.21036L52.0853 11.7307Z" fill="#0A2B5B"/>
    <path d="M33.6326 20.8509L32.0088 21.7884L28.1906 15.1751L29.8144 14.2376L33.6326 20.8509Z" fill="#0A2B5B"/>
    <path d="M43.409 15.2358L41.6471 15.877L39.0353 8.70121L40.7972 8.05993L43.409 15.2358Z" fill="#0A2B5B"/>
    <path d="M25.6245 27.9988L24.1881 29.204L19.2796 23.3542L20.7159 22.149L25.6245 27.9988Z" fill="#0A2B5B"/>
    <path d="M13.9473 49.3667L13.306 51.1287L6.13021 48.5169L6.7715 46.755L13.9473 49.3667Z" fill="#0A2B5B"/>
    <path d="M18.3541 37.6445L17.1488 39.0808L11.299 34.1723L12.5043 32.7359L18.3541 37.6445Z" fill="#0A2B5B"/>
    <path d="M21.3792 96.4275L22.3167 98.0513L15.7035 101.869L14.766 100.246L21.3792 96.4275Z" fill="#0A2B5B"/>
    <path d="M41.1728 113.88L42.6091 115.085L37.7006 120.935L36.2642 119.73L41.1728 113.88Z" fill="#0A2B5B"/>
    <path d="M62.5795 119.131H64.4545V126.767H62.5795V119.131Z" fill="#0A2B5B"/>
    <path d="M51.1612 117.043L52.8605 117.835L49.6333 124.756L47.9339 123.964L51.1612 117.043Z" fill="#0A2B5B"/>
    <path d="M14.7641 86.0812L15.4054 87.8431L8.22953 90.4549L7.58825 88.693L14.7641 86.0812Z" fill="#0A2B5B"/>
    <path d="M29.5271 106.349L30.7323 107.786L24.8825 112.694L23.6773 111.258L29.5271 106.349Z" fill="#0A2B5B"/>
    <path d="M11.7307 74.2917L12.0563 76.1382L4.53595 77.4642L4.21036 75.6177L11.7307 74.2917Z" fill="#0A2B5B"/>
  </g>
  
  <!-- Texte ajouté -->
  <text x="140" y="90" font-family="Arial, sans-serif" font-size="40" font-weight="bold" fill="#0A2B5B">RESEARCH</text>
  <text x="140" y="110" font-family="Arial, sans-serif" font-size="8" fill="#0A2B5B">Le partenaire de la Recherche Médicale dans le Sud-Ouest</text>
</svg>