<svg width="128" height="129" viewBox="0 0 128 129" fill="none" xmlns="http://www.w3.org/2000/svg">
<path fill-rule="evenodd" clip-rule="evenodd" d="M45 59.4717V68.4611H54L44 82.4611H51.5L53.5 82.9611L54.5 84.9611V85.4611C54.5 85.5059 54.4979 85.3725 54.5 85.4611C54.5209 86.3587 54 86.9611 53.5 88.9611L46.5 89.4611C46.5 91.9611 46.5 96.9611 47.5 96.9611H71C72.3333 96.7944 75.2 96.2611 76 95.4611C77 94.4611 78.5 91.4611 78.5 90.4611L79 86.9717L78.5 82.9611C78 81.4611 76.5 79.9611 75.5 78.9611C75.2028 78.6639 74.7139 78.4399 74.284 78.2429C73.6909 77.9712 73.2101 77.7509 73.5 77.4611C73.6193 77.3418 73.9092 77.0803 74.2816 76.7445C75.4705 75.6722 77.5 73.4717 77.5 73.4611L78 71.4717V69.9717L77.5 66.4611C77.5 65.9611 74.5 59.9611 71.5 59.9611C69.15 59.9611 53.0046 59.6415 45 59.4717ZM64.5 66.4611H68.309L69.3978 68.6386L69.4026 68.6483L69.4036 68.6502L69.4054 68.6539L69.4158 68.6746L69.4174 68.6778L69.4205 68.6839L69.4212 68.6854L69.4248 68.6925L69.4274 68.6979L69.4339 68.7109L69.435 68.7129L69.436 68.715L69.4365 68.7159L69.4374 68.7178L69.4379 68.7187L69.4437 68.7304L69.4442 68.7315L69.4452 68.7334L69.4458 68.7346L69.4468 68.7365L69.4472 68.7374L69 68.9611L69.4994 68.9362L69.5013 68.9752L69.5063 69.0852C69.5106 69.1805 69.5165 69.3183 69.5231 69.4887C69.5362 69.8295 69.5519 70.3014 69.5624 70.8261C69.5832 71.867 69.5842 73.1443 69.4975 74.0108L69.4884 74.1024L68.309 76.4611H64.5V66.4611ZM69 68.9611L69.4472 68.7374L69.4941 68.8313L69.4994 68.9362L69 68.9611ZM64.5 83.4611H68.309L69.4108 85.6646L69.4174 85.6778L69.4182 85.6794L69.4212 85.6854L69.4234 85.6897L69.4261 85.6952L69.4268 85.6966L69.4274 85.6979L69.4293 85.7016L69.4339 85.7108L69.435 85.7129L69.4374 85.7178L69.4379 85.7187L69.4387 85.7205L69.4425 85.728L69.4431 85.7293L69.4437 85.7304L69.4442 85.7315L69.4472 85.7374L69 85.9611L69.4994 85.9362L69.5013 85.9752L69.5063 86.0851C69.5106 86.1805 69.5165 86.3183 69.5231 86.4887C69.5362 86.8295 69.5519 87.3014 69.5624 87.8261C69.5832 88.867 69.5842 90.1443 69.4975 91.0108L69.4884 91.1024L68.309 93.4611H64.5V83.4611ZM69 85.9611L69.4472 85.7374L69.4941 85.8313L69.4994 85.9362L69 85.9611Z" fill="#FAF3DD"/>
<path d="M88.9999 43.9717L79.4999 35.4717C77.5 37.4717 74.5 40.9717 73.9999 41.4717C73.717 41.7545 76.1666 43.6383 76.9999 44.4717C76.8332 44.9717 75.4998 46.0773 75.4999 46.9717C75.5 47.9717 79 49.9717 79.4999 49.9717C80 49.9717 80 49.4717 81.4999 47.9717C82.2192 47.2524 84.0001 49.9717 85 49.4717C85.6324 49.1554 87.4999 45.9717 88.9999 43.9717Z" fill="#FAF3DD"/>
<path d="M97.5 28.9717C142.5 84.4717 74 137.472 32 98.75" stroke="#FAF3DD" stroke-width="10"/>
<path d="M120 64.4717C120 94.8558 95.5911 119.472 65.5 119.472C35.4089 119.472 11 94.8558 11 64.4717C11 34.0875 35.4089 9.47168 65.5 9.47168C95.5911 9.47168 120 34.0875 120 64.4717Z" stroke="#FAF3DD" stroke-width="2"/>
<circle cx="65.5" cy="64.9717" r="62" stroke="#FAF3DD"/>
<path d="M80.5 33.4717L100 7.47168L110 14.9717L109.5 15.9717L90 41.4717L80.5 33.4717Z" fill="#FAF3DD" stroke="#FAF3DD"/>
<path d="M35.5 96.9717C34.5 98.4717 32 103.972 32 104.972L36 105.472C43 107.305 57.4 110.972 59 110.972C61 110.972 87 107.972 87 107.472C87 106.972 76 100.972 74.5 99.9717C73 98.9717 62.5 85.9717 62.5 85.4717C62.5 85.0717 58.1667 88.6383 56 90.4717L46.5 80.4717C46.1667 81.1383 45.4 82.5717 45 82.9717C44.5 83.4717 41 87.9717 40.5 88.9717C40 89.9717 36.5 95.4717 35.5 96.9717Z" fill="#FAF3DD"/>
<path d="M11.3409 61.0512V62.9262H3.70455V61.0512H11.3409Z" fill="white"/>
<path d="M61.4205 10.8126H59.5455V3.17623H61.4205V10.8126Z" fill="white"/>
<path d="M52.0853 11.7307L50.2388 12.0563L48.9127 4.53595L50.7592 4.21036L52.0853 11.7307Z" fill="white"/>
<path d="M33.6326 20.8509L32.0088 21.7884L28.1906 15.1751L29.8144 14.2376L33.6326 20.8509Z" fill="white"/>
<path d="M43.409 15.2358L41.6471 15.877L39.0353 8.70121L40.7972 8.05993L43.409 15.2358Z" fill="white"/>
<path d="M25.6245 27.9988L24.1881 29.204L19.2796 23.3542L20.7159 22.149L25.6245 27.9988Z" fill="white"/>
<path d="M13.9473 49.3667L13.306 51.1287L6.13021 48.5169L6.7715 46.755L13.9473 49.3667Z" fill="white"/>
<path d="M18.3541 37.6445L17.1488 39.0808L11.299 34.1723L12.5043 32.7359L18.3541 37.6445Z" fill="white"/>
<path d="M21.3792 96.4275L22.3167 98.0513L15.7035 101.869L14.766 100.246L21.3792 96.4275Z" fill="white"/>
<path d="M41.1728 113.88L42.6091 115.085L37.7006 120.935L36.2642 119.73L41.1728 113.88Z" fill="white"/>
<path d="M62.5795 119.131H64.4545V126.767H62.5795V119.131Z" fill="white"/>
<path d="M51.1612 117.043L52.8605 117.835L49.6333 124.756L47.9339 123.964L51.1612 117.043Z" fill="white"/>
<path d="M14.7641 86.0812L15.4054 87.8431L8.22953 90.4549L7.58825 88.693L14.7641 86.0812Z" fill="white"/>
<path d="M29.5271 106.349L30.7323 107.786L24.8825 112.694L23.6773 111.258L29.5271 106.349Z" fill="white"/>
<path d="M11.7307 74.2917L12.0563 76.1382L4.53595 77.4642L4.21036 75.6177L11.7307 74.2917Z" fill="white"/>
</svg>
